<?xml version="1.0" standalone="no"?><svg xmlns:xlink="http://www.w3.org/1999/xlink" xmlns="http://www.w3.org/2000/svg" viewBox="0 0 1000 1428.609542442972" preserveAspectRatio="xMaxYMax slice"><g transform="scale(2.845835741918271)"><rect x="0" y="0" width="351.40000000000003" height="502" fill="#fff9f5"/><g transform="translate(20.08,20.08) scale(0.502) rotate(0)"><path d="M10 0L20 10L10 20L0 10L10 0Z" fill="#797675"/></g><g transform="translate(70.28,20.08) scale(0.502) rotate(0)"><path d="M10 0L20 10L10 20L0 10L10 0Z" fill="#537bf6"/></g><g transform="translate(120.48,20.08) scale(0.502) rotate(0)"><path fill-rule="evenodd" clip-rule="evenodd" d="M10 20C15.5228 20 20 15.5228 20 10C20 4.47715 15.5228 0 10 0C4.47715 0 0 4.47715 0 10C0 15.5228 4.47715 20 10 20ZM10 17C13.866 17 17 13.866 17 10C17 6.13401 13.866 3 10 3C6.13401 3 3 6.13401 3 10C3 13.866 6.13401 17 10 17Z" fill="#393938"/></g><rect x="220.88000000000002" y="20.080000000000002" width="10.04" height="10.04" fill="#fff9f5"/><polygon points="220.88,20.08 225.9,20.08 225.9,25.099999999999998" fill="#6e6c6a"/><g transform="translate(225.9,20.08) scale(0.251) rotate(0)"><path fill-rule="evenodd" clip-rule="evenodd" d="M10 20C15.5228 20 20 15.5228 20 10C20 4.47715 15.5228 0 10 0C4.47715 0 0 4.47715 0 10C0 15.5228 4.47715 20 10 20ZM10 17C13.866 17 17 13.866 17 10C17 6.13401 13.866 3 10 3C6.13401 3 3 6.13401 3 10C3 13.866 6.13401 17 10 17Z" fill="#7d7a78"/></g><rect x="20.080000000000002" y="70.28" width="10.04" height="10.04" fill="#fff9f5"/><g transform="translate(20.08,70.28) scale(0.251) rotate(0)"><path fill-rule="evenodd" clip-rule="evenodd" d="M10 20C15.5228 20 20 15.5228 20 10C20 4.47715 15.5228 0 10 0C4.47715 0 0 4.47715 0 10C0 15.5228 4.47715 20 10 20ZM10 17C13.866 17 17 13.866 17 10C17 6.13401 13.866 3 10 3C6.13401 3 3 6.13401 3 10C3 13.866 6.13401 17 10 17Z" fill="#ded9d5"/></g><g transform="translate(68.63,68.63) scale(0.667) rotate(0)"><path fill-rule="evenodd" clip-rule="evenodd" d="M10 20C15.5228 20 20 15.5228 20 10C20 4.47715 15.5228 0 10 0C4.47715 0 0 4.47715 0 10C0 15.5228 4.47715 20 10 20ZM10 17C13.866 17 17 13.866 17 10C17 6.13401 13.866 3 10 3C6.13401 3 3 6.13401 3 10C3 13.866 6.13401 17 10 17Z" fill="#1850f7"/></g><polygon points="216.06,65.46 235.74,65.46 235.74,85.13999999999999" fill="#9db1f6"/><polygon points="267.78,66.98 284.42999999999995,83.63 267.78,83.63" fill="#829ef6"/><rect x="20.080000000000002" y="120.48" width="10.04" height="10.04" fill="#fff9f5"/><polygon points="25.1,120.48 30.12,120.48 30.12,125.5" fill="#0c48f7"/><g transform="translate(66.98,117.18) scale(0.8324999999999999) rotate(0)"><path d="M10 0L20 10L10 20L0 10L10 0Z" fill="#bec9f6"/></g><rect x="113.87081142857144" y="113.87081142857144" width="23.25837714285714" height="23.25837714285714" fill="#fff9f5"/><g transform="translate(113.87,125.5) scale(0.5815) rotate(0)"><path fill-rule="evenodd" clip-rule="evenodd" d="M10 20C15.5228 20 20 15.5228 20 10C20 4.47715 15.5228 0 10 0C4.47715 0 0 4.47715 0 10C0 15.5228 4.47715 20 10 20ZM10 17C13.866 17 17 13.866 17 10C17 6.13401 13.866 3 10 3C6.13401 3 3 6.13401 3 10C3 13.866 6.13401 17 10 17Z" fill="#2f61f7"/></g><rect x="110.56621714285716" y="160.76621714285716" width="29.86756571428571" height="29.86756571428571" fill="#fff9f5"/><polygon points="125.5,160.77 140.43,175.70000000000002 125.5,175.70000000000002" fill="#aeaaa7"/><g transform="translate(110.57,175.7) scale(0.7464999999999999) rotate(0)"><path fill-rule="evenodd" clip-rule="evenodd" d="M10 20C15.5228 20 20 15.5228 20 10C20 4.47715 15.5228 0 10 0C4.47715 0 0 4.47715 0 10C0 15.5228 4.47715 20 10 20ZM10 17C13.866 17 17 13.866 17 10C17 6.13401 13.866 3 10 3C6.13401 3 3 6.13401 3 10C3 13.866 6.13401 17 10 17Z" fill="#e2dcd9"/></g><g transform="translate(156.22,156.22) scale(1.948) rotate(0)"><path fill-rule="evenodd" clip-rule="evenodd" d="M10 20C15.5228 20 20 15.5228 20 10C20 4.47715 15.5228 0 10 0C4.47715 0 0 4.47715 0 10C0 15.5228 4.47715 20 10 20ZM10 17C13.866 17 17 13.866 17 10C17 6.13401 13.866 3 10 3C6.13401 3 3 6.13401 3 10C3 13.866 6.13401 17 10 17Z" fill="#0d48f7"/></g><polygon points="20.08,220.88 30.119999999999997,220.88 30.119999999999997,230.92" fill="#494847"/><rect x="107.26162285714287" y="207.66162285714287" width="36.476754285714286" height="36.476754285714286" fill="#fff9f5"/><g transform="translate(125.5,207.66) scale(0.9119999999999999) rotate(0)"><rect width="2" height="20" fill="#2056f7"/><rect x="4" width="2" height="20" fill="#2056f7"/><rect x="8" width="2" height="20" fill="#2056f7"/><rect x="12" width="2" height="20" fill="#2056f7"/><rect x="16" width="2" height="20" fill="#2056f7"/></g><g transform="translate(125.5,225.9) scale(0.9119999999999999) rotate(0)"><rect width="2" height="20" fill="#94abf6"/><rect x="4" width="2" height="20" fill="#94abf6"/><rect x="8" width="2" height="20" fill="#94abf6"/><rect x="12" width="2" height="20" fill="#94abf6"/><rect x="16" width="2" height="20" fill="#94abf6"/></g><rect x="151.40320000000003" y="201.60320000000002" width="48.5936" height="48.5936" fill="#fff9f5"/><g transform="translate(151.4,201.6) scale(1.215) rotate(0)"><path d="M10 0L20 10L10 20L0 10L10 0Z" fill="#5f84f6"/></g><g transform="translate(175.7,201.6) scale(1.215) rotate(0)"><path fill-rule="evenodd" clip-rule="evenodd" d="M10 20C15.5228 20 20 15.5228 20 10C20 4.47715 15.5228 0 10 0C4.47715 0 0 4.47715 0 10C0 15.5228 4.47715 20 10 20ZM10 17C13.866 17 17 13.866 17 10C17 6.13401 13.866 3 10 3C6.13401 3 3 6.13401 3 10C3 13.866 6.13401 17 10 17Z" fill="#636261"/></g><g transform="translate(151.4,225.9) scale(1.215) rotate(0)"><path d="M10 0L20 10L10 20L0 10L10 0Z" fill="#e6e0dd"/></g><rect x="257.86162285714283" y="207.66162285714287" width="36.476754285714286" height="36.476754285714286" fill="#fff9f5"/><g transform="translate(257.86,207.66) scale(0.9119999999999999) rotate(0)"><path d="M10 0L20 10L10 20L0 10L10 0Z" fill="#a4b7f6"/></g><rect x="314.6708114285715" y="214.27081142857145" width="23.25837714285714" height="23.25837714285714" fill="#fff9f5"/><rect x="20.080000000000002" y="271.08" width="10.04" height="10.04" fill="#fff9f5"/><g transform="translate(20.08,271.08) scale(0.251) rotate(0)"><rect width="2" height="20" fill="#e3e4f5"/><rect x="4" width="2" height="20" fill="#e3e4f5"/><rect x="8" width="2" height="20" fill="#e3e4f5"/><rect x="12" width="2" height="20" fill="#e3e4f5"/><rect x="16" width="2" height="20" fill="#e3e4f5"/></g><g transform="translate(20.08,276.1) scale(0.251) rotate(0)"><path fill-rule="evenodd" clip-rule="evenodd" d="M10 20C15.5228 20 20 15.5228 20 10C20 4.47715 15.5228 0 10 0C4.47715 0 0 4.47715 0 10C0 15.5228 4.47715 20 10 20ZM10 17C13.866 17 17 13.866 17 10C17 6.13401 13.866 3 10 3C6.13401 3 3 6.13401 3 10C3 13.866 6.13401 17 10 17Z" fill="#dbdff5"/></g><g transform="translate(25.1,276.1) scale(0.251) rotate(0)"><path d="M10 0L20 10L10 20L0 10L10 0Z" fill="#7f9bf6"/></g><polygon points="150.6,251 200.8,251 150.6,301.2" fill="#7a7776"/><rect x="200.8" y="251" width="50.2" height="50.2" fill="#fff9f5"/><g transform="translate(200.8,251) scale(1.2550000000000001) rotate(0)"><path d="M10 0L20 10L10 20L0 10L10 0Z" fill="#ecebf5"/></g><g transform="translate(225.9,251) scale(1.2550000000000001) rotate(0)"><rect width="2" height="20" fill="#4c4b4a"/><rect x="4" width="2" height="20" fill="#4c4b4a"/><rect x="8" width="2" height="20" fill="#4c4b4a"/><rect x="12" width="2" height="20" fill="#4c4b4a"/><rect x="16" width="2" height="20" fill="#4c4b4a"/></g><g transform="translate(200.8,276.1) scale(1.2550000000000001) rotate(0)"><path d="M10 0L20 10L10 20L0 10L10 0Z" fill="#5b81f6"/></g><polygon points="257.31,257.31 294.89,294.89 257.31,294.89" fill="#ddd8d5"/><polygon points="201.6,302 250.19,350.59000000000003 201.6,350.59000000000003" fill="#4a75f6"/><g transform="translate(261.17,361.57) scale(1.4935) rotate(0)"><path d="M10 0L20 10L10 20L0 10L10 0Z" fill="#999694"/></g><polygon points="336.27,366.52 336.27,386.46999999999997 316.32,386.46999999999997" fill="#a0b4f6"/><g transform="translate(20.08,421.68) scale(0.502) rotate(0)"><path d="M10 0L20 10L10 20L0 10L10 0Z" fill="#b9c6f6"/></g><g transform="translate(66.98,418.38) scale(0.8324999999999999) rotate(0)"><path fill-rule="evenodd" clip-rule="evenodd" d="M10 20C15.5228 20 20 15.5228 20 10C20 4.47715 15.5228 0 10 0C4.47715 0 0 4.47715 0 10C0 15.5228 4.47715 20 10 20ZM10 17C13.866 17 17 13.866 17 10C17 6.13401 13.866 3 10 3C6.13401 3 3 6.13401 3 10C3 13.866 6.13401 17 10 17Z" fill="#1e55f7"/></g><rect x="211.2416" y="412.0416" width="29.3168" height="29.3168" fill="#fff9f5"/><polygon points="264.47,415.07 287.73,415.07 264.47,438.33" fill="#e1e3f5"/><rect x="68.62770285714286" y="470.22770285714284" width="13.344594285714287" height="13.344594285714287" fill="#fff9f5"/><polygon points="68.63,476.9 75.3,476.9 68.63,483.57" fill="#537bf6"/><g transform="translate(75.3,476.9) scale(0.3335) rotate(0)"><path fill-rule="evenodd" clip-rule="evenodd" d="M10 20C15.5228 20 20 15.5228 20 10C20 4.47715 15.5228 0 10 0C4.47715 0 0 4.47715 0 10C0 15.5228 4.47715 20 10 20ZM10 17C13.866 17 17 13.866 17 10C17 6.13401 13.866 3 10 3C6.13401 3 3 6.13401 3 10C3 13.866 6.13401 17 10 17Z" fill="#777473"/></g><rect x="319.6277028571429" y="470.22770285714284" width="13.344594285714287" height="13.344594285714287" fill="#fff9f5"/><g transform="translate(326.3,476.9) scale(0.3335) rotate(0)"><path fill-rule="evenodd" clip-rule="evenodd" d="M10 20C15.5228 20 20 15.5228 20 10C20 4.47715 15.5228 0 10 0C4.47715 0 0 4.47715 0 10C0 15.5228 4.47715 20 10 20ZM10 17C13.866 17 17 13.866 17 10C17 6.13401 13.866 3 10 3C6.13401 3 3 6.13401 3 10C3 13.866 6.13401 17 10 17Z" fill="#383737"/></g></g></svg>