<?xml version="1.0" standalone="no"?><svg xmlns:xlink="http://www.w3.org/1999/xlink" xmlns="http://www.w3.org/2000/svg" viewBox="0 0 1000 1428.609542442972" preserveAspectRatio="xMaxYMax slice"><g transform="scale(2.845835741918271)"><rect x="0" y="0" width="351.40000000000003" height="502" fill="#3730a3"/><rect x="20.080000000000002" y="20.080000000000002" width="10.04" height="10.04" fill="#3730a3"/><g transform="translate(20.08,20.08) scale(0.251) rotate(0)"><rect width="2" height="20" fill="#47acff"/><rect x="4" width="2" height="20" fill="#47acff"/><rect x="8" width="2" height="20" fill="#47acff"/><rect x="12" width="2" height="20" fill="#47acff"/><rect x="16" width="2" height="20" fill="#47acff"/></g><circle cx="27.61" cy="22.589999999999996" r="2.51" fill="#02f7cb"/><g transform="translate(20.08,25.1) scale(0.251) rotate(0)"><rect width="2" height="20" fill="#02f7cb"/><rect x="4" width="2" height="20" fill="#02f7cb"/><rect x="8" width="2" height="20" fill="#02f7cb"/><rect x="12" width="2" height="20" fill="#02f7cb"/><rect x="16" width="2" height="20" fill="#02f7cb"/></g><g transform="translate(25.1,25.1) scale(0.251) rotate(0)"><path d="M10 5L5 0L0 5L5 10L0 15L5 20L10 15L15 20L20 15L15 10L20 5L15 0L10 5Z" fill="#02f7cb"/></g><g transform="translate(63.4,13.2) scale(1.1905) rotate(0)"><rect width="20" height="2" fill="#47acff"/><rect y="4" width="20" height="2" fill="#47acff"/><rect y="8" width="20" height="2" fill="#47acff"/><rect y="12" width="20" height="2" fill="#47acff"/><rect y="16" width="20" height="2" fill="#47acff"/></g><circle cx="125.5" cy="25.099999999999998" r="18.79" fill="#02f7cb"/><rect x="150.60000000000002" y="0" width="50.2" height="50.2" fill="#3730a3"/><g transform="translate(150.6,0) scale(1.2550000000000001) rotate(0)"><rect width="2" height="20" fill="#47acff"/><rect x="4" width="2" height="20" fill="#47acff"/><rect x="8" width="2" height="20" fill="#47acff"/><rect x="12" width="2" height="20" fill="#47acff"/><rect x="16" width="2" height="20" fill="#47acff"/></g><circle cx="188.25" cy="12.55" r="12.55" fill="#47acff"/><g transform="translate(150.6,25.1) scale(1.2550000000000001) rotate(0)"><rect width="2" height="20" fill="#47acff"/><rect x="4" width="2" height="20" fill="#47acff"/><rect x="8" width="2" height="20" fill="#47acff"/><rect x="12" width="2" height="20" fill="#47acff"/><rect x="16" width="2" height="20" fill="#47acff"/></g><g transform="translate(175.7,25.1) scale(1.2550000000000001) rotate(0)"><path fill-rule="evenodd" clip-rule="evenodd" d="M10 20C15.5228 20 20 15.5228 20 10C20 4.47715 15.5228 0 10 0C4.47715 0 0 4.47715 0 10C0 15.5228 4.47715 20 10 20ZM10 17C13.866 17 17 13.866 17 10C17 6.13401 13.866 3 10 3C6.13401 3 3 6.13401 3 10C3 13.866 6.13401 17 10 17Z" fill="#02f7cb"/></g><g transform="translate(200.8,0) scale(2.5100000000000002) rotate(0)"><path d="M10 5L5 0L0 5L5 10L0 15L5 20L10 15L15 20L20 15L15 10L20 5L15 0L10 5Z" fill="#02f7cb"/></g><circle cx="276.1" cy="25.099999999999998" r="18.79" fill="#47acff"/><circle cx="326.30499999999995" cy="25.104999999999997" r="11.905" fill="#02f7cb"/><g transform="translate(20.08,70.28) scale(0.502) rotate(0)"><rect width="20" height="2" fill="#47acff"/><rect y="4" width="20" height="2" fill="#47acff"/><rect y="8" width="20" height="2" fill="#47acff"/><rect y="12" width="20" height="2" fill="#47acff"/><rect y="16" width="20" height="2" fill="#47acff"/></g><circle cx="75.30499999999999" cy="75.30499999999999" r="11.905" fill="#02f7cb"/><circle cx="125.5" cy="75.3" r="18.79" fill="#02f7cb"/><circle cx="175.7" cy="75.30000000000001" r="25.1" fill="#02f7cb"/><g transform="translate(200.8,50.2) scale(2.5100000000000002) rotate(0)"><path d="M10 5L5 0L0 5L5 10L0 15L5 20L10 15L15 20L20 15L15 10L20 5L15 0L10 5Z" fill="#02f7cb"/></g><rect x="257.3108571428571" y="56.51085714285715" width="37.57828571428571" height="37.57828571428571" fill="#3730a3"/><g transform="translate(257.31,56.51) scale(0.9395) rotate(0)"><rect width="2" height="20" fill="#47acff"/><rect x="4" width="2" height="20" fill="#47acff"/><rect x="8" width="2" height="20" fill="#47acff"/><rect x="12" width="2" height="20" fill="#47acff"/><rect x="16" width="2" height="20" fill="#47acff"/></g><g transform="translate(276.1,56.51) scale(0.9395) rotate(0)"><rect width="20" height="2" fill="#02f7cb"/><rect y="4" width="20" height="2" fill="#02f7cb"/><rect y="8" width="20" height="2" fill="#02f7cb"/><rect y="12" width="20" height="2" fill="#02f7cb"/><rect y="16" width="20" height="2" fill="#02f7cb"/></g><g transform="translate(257.31,75.3) scale(0.9395) rotate(0)"><rect width="2" height="20" fill="#47acff"/><rect x="4" width="2" height="20" fill="#47acff"/><rect x="8" width="2" height="20" fill="#47acff"/><rect x="12" width="2" height="20" fill="#47acff"/><rect x="16" width="2" height="20" fill="#47acff"/></g><g transform="translate(276.1,75.3) scale(0.9395) rotate(0)"><path fill-rule="evenodd" clip-rule="evenodd" d="M10 20C15.5228 20 20 15.5228 20 10C20 4.47715 15.5228 0 10 0C4.47715 0 0 4.47715 0 10C0 15.5228 4.47715 20 10 20ZM10 17C13.866 17 17 13.866 17 10C17 6.13401 13.866 3 10 3C6.13401 3 3 6.13401 3 10C3 13.866 6.13401 17 10 17Z" fill="#47acff"/></g><g transform="translate(314.4,63.4) scale(1.1905) rotate(0)"><rect width="2" height="20" fill="#47acff"/><rect x="4" width="2" height="20" fill="#47acff"/><rect x="8" width="2" height="20" fill="#47acff"/><rect x="12" width="2" height="20" fill="#47acff"/><rect x="16" width="2" height="20" fill="#47acff"/></g><g transform="translate(20.08,120.48) scale(0.502) rotate(0)"><path fill-rule="evenodd" clip-rule="evenodd" d="M10 20C15.5228 20 20 15.5228 20 10C20 4.47715 15.5228 0 10 0C4.47715 0 0 4.47715 0 10C0 15.5228 4.47715 20 10 20ZM10 17C13.866 17 17 13.866 17 10C17 6.13401 13.866 3 10 3C6.13401 3 3 6.13401 3 10C3 13.866 6.13401 17 10 17Z" fill="#02f7cb"/></g><g transform="translate(63.4,113.6) scale(1.1905) rotate(0)"><rect width="20" height="2" fill="#02f7cb"/><rect y="4" width="20" height="2" fill="#02f7cb"/><rect y="8" width="20" height="2" fill="#02f7cb"/><rect y="12" width="20" height="2" fill="#02f7cb"/><rect y="16" width="20" height="2" fill="#02f7cb"/></g><circle cx="125.5" cy="125.5" r="18.79" fill="#02f7cb"/><g transform="translate(150.6,100.4) scale(2.5100000000000002) rotate(0)"><path d="M10 5L5 0L0 5L5 10L0 15L5 20L10 15L15 20L20 15L15 10L20 5L15 0L10 5Z" fill="#47acff"/></g><circle cx="225.9" cy="125.5" r="25.1" fill="#47acff"/><rect x="257.3108571428571" y="106.71085714285715" width="37.57828571428571" height="37.57828571428571" fill="#3730a3"/><g transform="translate(257.31,106.71) scale(0.9395) rotate(0)"><path d="M10 5L5 0L0 5L5 10L0 15L5 20L10 15L15 20L20 15L15 10L20 5L15 0L10 5Z" fill="#47acff"/></g><g transform="translate(276.1,106.71) scale(0.9395) rotate(0)"><path fill-rule="evenodd" clip-rule="evenodd" d="M10 20C15.5228 20 20 15.5228 20 10C20 4.47715 15.5228 0 10 0C4.47715 0 0 4.47715 0 10C0 15.5228 4.47715 20 10 20ZM10 17C13.866 17 17 13.866 17 10C17 6.13401 13.866 3 10 3C6.13401 3 3 6.13401 3 10C3 13.866 6.13401 17 10 17Z" fill="#02f7cb"/></g><circle cx="266.705" cy="134.895" r="9.395" fill="#47acff"/><g transform="translate(276.1,125.5) scale(0.9395) rotate(0)"><rect width="20" height="2" fill="#02f7cb"/><rect y="4" width="20" height="2" fill="#02f7cb"/><rect y="8" width="20" height="2" fill="#02f7cb"/><rect y="12" width="20" height="2" fill="#02f7cb"/><rect y="16" width="20" height="2" fill="#02f7cb"/></g><g transform="translate(314.4,113.6) scale(1.1905) rotate(0)"><path fill-rule="evenodd" clip-rule="evenodd" d="M10 20C15.5228 20 20 15.5228 20 10C20 4.47715 15.5228 0 10 0C4.47715 0 0 4.47715 0 10C0 15.5228 4.47715 20 10 20ZM10 17C13.866 17 17 13.866 17 10C17 6.13401 13.866 3 10 3C6.13401 3 3 6.13401 3 10C3 13.866 6.13401 17 10 17Z" fill="#47acff"/></g><g transform="translate(20.08,170.68) scale(0.502) rotate(0)"><path d="M10 5L5 0L0 5L5 10L0 15L5 20L10 15L15 20L20 15L15 10L20 5L15 0L10 5Z" fill="#47acff"/></g><g transform="translate(63.4,163.8) scale(1.1905) rotate(0)"><rect width="2" height="20" fill="#47acff"/><rect x="4" width="2" height="20" fill="#47acff"/><rect x="8" width="2" height="20" fill="#47acff"/><rect x="12" width="2" height="20" fill="#47acff"/><rect x="16" width="2" height="20" fill="#47acff"/></g><circle cx="125.5" cy="175.7" r="18.79" fill="#02f7cb"/><rect x="150.60000000000002" y="150.60000000000002" width="50.2" height="50.2" fill="#3730a3"/><g transform="translate(150.6,150.6) scale(1.2550000000000001) rotate(0)"><rect width="20" height="2" fill="#02f7cb"/><rect y="4" width="20" height="2" fill="#02f7cb"/><rect y="8" width="20" height="2" fill="#02f7cb"/><rect y="12" width="20" height="2" fill="#02f7cb"/><rect y="16" width="20" height="2" fill="#02f7cb"/></g><g transform="translate(175.7,150.6) scale(1.2550000000000001) rotate(0)"><path fill-rule="evenodd" clip-rule="evenodd" d="M10 20C15.5228 20 20 15.5228 20 10C20 4.47715 15.5228 0 10 0C4.47715 0 0 4.47715 0 10C0 15.5228 4.47715 20 10 20ZM10 17C13.866 17 17 13.866 17 10C17 6.13401 13.866 3 10 3C6.13401 3 3 6.13401 3 10C3 13.866 6.13401 17 10 17Z" fill="#47acff"/></g><g transform="translate(150.6,175.7) scale(1.2550000000000001) rotate(0)"><path d="M10 5L5 0L0 5L5 10L0 15L5 20L10 15L15 20L20 15L15 10L20 5L15 0L10 5Z" fill="#47acff"/></g><g transform="translate(175.7,175.7) scale(1.2550000000000001) rotate(0)"><path fill-rule="evenodd" clip-rule="evenodd" d="M10 20C15.5228 20 20 15.5228 20 10C20 4.47715 15.5228 0 10 0C4.47715 0 0 4.47715 0 10C0 15.5228 4.47715 20 10 20ZM10 17C13.866 17 17 13.866 17 10C17 6.13401 13.866 3 10 3C6.13401 3 3 6.13401 3 10C3 13.866 6.13401 17 10 17Z" fill="#47acff"/></g><g transform="translate(200.8,150.6) scale(2.5100000000000002) rotate(0)"><rect width="20" height="2" fill="#02f7cb"/><rect y="4" width="20" height="2" fill="#02f7cb"/><rect y="8" width="20" height="2" fill="#02f7cb"/><rect y="12" width="20" height="2" fill="#02f7cb"/><rect y="16" width="20" height="2" fill="#02f7cb"/></g><rect x="257.3108571428571" y="156.91085714285717" width="37.57828571428571" height="37.57828571428571" fill="#3730a3"/><g transform="translate(257.31,156.91) scale(0.9395) rotate(0)"><rect width="20" height="2" fill="#47acff"/><rect y="4" width="20" height="2" fill="#47acff"/><rect y="8" width="20" height="2" fill="#47acff"/><rect y="12" width="20" height="2" fill="#47acff"/><rect y="16" width="20" height="2" fill="#47acff"/></g><g transform="translate(276.1,156.91) scale(0.9395) rotate(0)"><rect width="2" height="20" fill="#02f7cb"/><rect x="4" width="2" height="20" fill="#02f7cb"/><rect x="8" width="2" height="20" fill="#02f7cb"/><rect x="12" width="2" height="20" fill="#02f7cb"/><rect x="16" width="2" height="20" fill="#02f7cb"/></g><g transform="translate(257.31,175.7) scale(0.9395) rotate(0)"><rect width="20" height="2" fill="#47acff"/><rect y="4" width="20" height="2" fill="#47acff"/><rect y="8" width="20" height="2" fill="#47acff"/><rect y="12" width="20" height="2" fill="#47acff"/><rect y="16" width="20" height="2" fill="#47acff"/></g><g transform="translate(276.1,175.7) scale(0.9395) rotate(0)"><path d="M10 5L5 0L0 5L5 10L0 15L5 20L10 15L15 20L20 15L15 10L20 5L15 0L10 5Z" fill="#47acff"/></g><rect x="314.3954285714286" y="163.7954285714286" width="23.809142857142856" height="23.809142857142856" fill="#3730a3"/><g transform="translate(314.4,163.8) scale(0.595) rotate(0)"><rect width="2" height="20" fill="#47acff"/><rect x="4" width="2" height="20" fill="#47acff"/><rect x="8" width="2" height="20" fill="#47acff"/><rect x="12" width="2" height="20" fill="#47acff"/><rect x="16" width="2" height="20" fill="#47acff"/></g><g transform="translate(326.3,163.8) scale(0.595) rotate(0)"><rect width="20" height="2" fill="#02f7cb"/><rect y="4" width="20" height="2" fill="#02f7cb"/><rect y="8" width="20" height="2" fill="#02f7cb"/><rect y="12" width="20" height="2" fill="#02f7cb"/><rect y="16" width="20" height="2" fill="#02f7cb"/></g><g transform="translate(314.4,175.7) scale(0.595) rotate(0)"><path d="M10 5L5 0L0 5L5 10L0 15L5 20L10 15L15 20L20 15L15 10L20 5L15 0L10 5Z" fill="#47acff"/></g><g transform="translate(326.3,175.7) scale(0.595) rotate(0)"><rect width="20" height="2" fill="#47acff"/><rect y="4" width="20" height="2" fill="#47acff"/><rect y="8" width="20" height="2" fill="#47acff"/><rect y="12" width="20" height="2" fill="#47acff"/><rect y="16" width="20" height="2" fill="#47acff"/></g><rect x="20.080000000000002" y="220.88000000000002" width="10.04" height="10.04" fill="#3730a3"/><g transform="translate(20.08,220.88) scale(0.251) rotate(0)"><path d="M10 5L5 0L0 5L5 10L0 15L5 20L10 15L15 20L20 15L15 10L20 5L15 0L10 5Z" fill="#47acff"/></g><circle cx="27.61" cy="223.39" r="2.51" fill="#02f7cb"/><g transform="translate(20.08,225.9) scale(0.251) rotate(0)"><path fill-rule="evenodd" clip-rule="evenodd" d="M10 20C15.5228 20 20 15.5228 20 10C20 4.47715 15.5228 0 10 0C4.47715 0 0 4.47715 0 10C0 15.5228 4.47715 20 10 20ZM10 17C13.866 17 17 13.866 17 10C17 6.13401 13.866 3 10 3C6.13401 3 3 6.13401 3 10C3 13.866 6.13401 17 10 17Z" fill="#02f7cb"/></g><g transform="translate(25.1,225.9) scale(0.251) rotate(0)"><rect width="20" height="2" fill="#02f7cb"/><rect y="4" width="20" height="2" fill="#02f7cb"/><rect y="8" width="20" height="2" fill="#02f7cb"/><rect y="12" width="20" height="2" fill="#02f7cb"/><rect y="16" width="20" height="2" fill="#02f7cb"/></g><rect x="63.395428571428575" y="213.9954285714286" width="23.809142857142856" height="23.809142857142856" fill="#3730a3"/><g transform="translate(63.4,214) scale(0.595) rotate(0)"><rect width="20" height="2" fill="#47acff"/><rect y="4" width="20" height="2" fill="#47acff"/><rect y="8" width="20" height="2" fill="#47acff"/><rect y="12" width="20" height="2" fill="#47acff"/><rect y="16" width="20" height="2" fill="#47acff"/></g><g transform="translate(75.3,214) scale(0.595) rotate(0)"><path d="M10 5L5 0L0 5L5 10L0 15L5 20L10 15L15 20L20 15L15 10L20 5L15 0L10 5Z" fill="#02f7cb"/></g><circle cx="69.35" cy="231.85" r="5.95" fill="#02f7cb"/><g transform="translate(75.3,225.9) scale(0.595) rotate(0)"><path d="M10 5L5 0L0 5L5 10L0 15L5 20L10 15L15 20L20 15L15 10L20 5L15 0L10 5Z" fill="#02f7cb"/></g><g transform="translate(106.71,207.11) scale(1.879) rotate(0)"><path d="M10 5L5 0L0 5L5 10L0 15L5 20L10 15L15 20L20 15L15 10L20 5L15 0L10 5Z" fill="#02f7cb"/></g><rect x="150.60000000000002" y="200.8" width="50.2" height="50.2" fill="#3730a3"/><g transform="translate(150.6,200.8) scale(1.2550000000000001) rotate(0)"><path d="M10 5L5 0L0 5L5 10L0 15L5 20L10 15L15 20L20 15L15 10L20 5L15 0L10 5Z" fill="#47acff"/></g><circle cx="188.25" cy="213.35000000000002" r="12.55" fill="#02f7cb"/><g transform="translate(150.6,225.9) scale(1.2550000000000001) rotate(0)"><rect width="20" height="2" fill="#47acff"/><rect y="4" width="20" height="2" fill="#47acff"/><rect y="8" width="20" height="2" fill="#47acff"/><rect y="12" width="20" height="2" fill="#47acff"/><rect y="16" width="20" height="2" fill="#47acff"/></g><circle cx="188.25" cy="238.45000000000002" r="12.55" fill="#47acff"/><g transform="translate(200.8,200.8) scale(2.5100000000000002) rotate(0)"><path fill-rule="evenodd" clip-rule="evenodd" d="M10 20C15.5228 20 20 15.5228 20 10C20 4.47715 15.5228 0 10 0C4.47715 0 0 4.47715 0 10C0 15.5228 4.47715 20 10 20ZM10 17C13.866 17 17 13.866 17 10C17 6.13401 13.866 3 10 3C6.13401 3 3 6.13401 3 10C3 13.866 6.13401 17 10 17Z" fill="#47acff"/></g><rect x="257.3108571428571" y="207.11085714285716" width="37.57828571428571" height="37.57828571428571" fill="#3730a3"/><g transform="translate(257.31,207.11) scale(0.9395) rotate(0)"><rect width="20" height="2" fill="#47acff"/><rect y="4" width="20" height="2" fill="#47acff"/><rect y="8" width="20" height="2" fill="#47acff"/><rect y="12" width="20" height="2" fill="#47acff"/><rect y="16" width="20" height="2" fill="#47acff"/></g><g transform="translate(276.1,207.11) scale(0.9395) rotate(0)"><path d="M10 5L5 0L0 5L5 10L0 15L5 20L10 15L15 20L20 15L15 10L20 5L15 0L10 5Z" fill="#02f7cb"/></g><g transform="translate(257.31,225.9) scale(0.9395) rotate(0)"><rect width="2" height="20" fill="#47acff"/><rect x="4" width="2" height="20" fill="#47acff"/><rect x="8" width="2" height="20" fill="#47acff"/><rect x="12" width="2" height="20" fill="#47acff"/><rect x="16" width="2" height="20" fill="#47acff"/></g><circle cx="285.495" cy="235.29500000000002" r="9.395" fill="#02f7cb"/><rect x="314.3954285714286" y="213.9954285714286" width="23.809142857142856" height="23.809142857142856" fill="#3730a3"/><g transform="translate(314.4,214) scale(0.595) rotate(0)"><path d="M10 5L5 0L0 5L5 10L0 15L5 20L10 15L15 20L20 15L15 10L20 5L15 0L10 5Z" fill="#02f7cb"/></g><circle cx="332.25" cy="219.95" r="5.95" fill="#02f7cb"/><g transform="translate(314.4,225.9) scale(0.595) rotate(0)"><path d="M10 5L5 0L0 5L5 10L0 15L5 20L10 15L15 20L20 15L15 10L20 5L15 0L10 5Z" fill="#02f7cb"/></g><g transform="translate(326.3,225.9) scale(0.595) rotate(0)"><path fill-rule="evenodd" clip-rule="evenodd" d="M10 20C15.5228 20 20 15.5228 20 10C20 4.47715 15.5228 0 10 0C4.47715 0 0 4.47715 0 10C0 15.5228 4.47715 20 10 20ZM10 17C13.866 17 17 13.866 17 10C17 6.13401 13.866 3 10 3C6.13401 3 3 6.13401 3 10C3 13.866 6.13401 17 10 17Z" fill="#02f7cb"/></g><g transform="translate(20.08,271.08) scale(0.502) rotate(0)"><path d="M10 5L5 0L0 5L5 10L0 15L5 20L10 15L15 20L20 15L15 10L20 5L15 0L10 5Z" fill="#47acff"/></g><rect x="63.395428571428575" y="264.1954285714286" width="23.809142857142856" height="23.809142857142856" fill="#3730a3"/><circle cx="69.35" cy="270.15" r="5.95" fill="#47acff"/><g transform="translate(75.3,264.2) scale(0.595) rotate(0)"><path fill-rule="evenodd" clip-rule="evenodd" d="M10 20C15.5228 20 20 15.5228 20 10C20 4.47715 15.5228 0 10 0C4.47715 0 0 4.47715 0 10C0 15.5228 4.47715 20 10 20ZM10 17C13.866 17 17 13.866 17 10C17 6.13401 13.866 3 10 3C6.13401 3 3 6.13401 3 10C3 13.866 6.13401 17 10 17Z" fill="#02f7cb"/></g><g transform="translate(63.4,276.1) scale(0.595) rotate(0)"><path fill-rule="evenodd" clip-rule="evenodd" d="M10 20C15.5228 20 20 15.5228 20 10C20 4.47715 15.5228 0 10 0C4.47715 0 0 4.47715 0 10C0 15.5228 4.47715 20 10 20ZM10 17C13.866 17 17 13.866 17 10C17 6.13401 13.866 3 10 3C6.13401 3 3 6.13401 3 10C3 13.866 6.13401 17 10 17Z" fill="#02f7cb"/></g><circle cx="81.25" cy="282.05" r="5.95" fill="#02f7cb"/><g transform="translate(106.71,257.31) scale(1.879) rotate(0)"><path d="M10 5L5 0L0 5L5 10L0 15L5 20L10 15L15 20L20 15L15 10L20 5L15 0L10 5Z" fill="#02f7cb"/></g><rect x="150.60000000000002" y="251" width="50.2" height="50.2" fill="#3730a3"/><circle cx="163.15" cy="263.55" r="12.55" fill="#02f7cb"/><g transform="translate(175.7,251) scale(1.2550000000000001) rotate(0)"><rect width="2" height="20" fill="#47acff"/><rect x="4" width="2" height="20" fill="#47acff"/><rect x="8" width="2" height="20" fill="#47acff"/><rect x="12" width="2" height="20" fill="#47acff"/><rect x="16" width="2" height="20" fill="#47acff"/></g><circle cx="163.15" cy="288.65000000000003" r="12.55" fill="#47acff"/><g transform="translate(175.7,276.1) scale(1.2550000000000001) rotate(0)"><path d="M10 5L5 0L0 5L5 10L0 15L5 20L10 15L15 20L20 15L15 10L20 5L15 0L10 5Z" fill="#02f7cb"/></g><g transform="translate(200.8,251) scale(2.5100000000000002) rotate(0)"><path d="M10 5L5 0L0 5L5 10L0 15L5 20L10 15L15 20L20 15L15 10L20 5L15 0L10 5Z" fill="#47acff"/></g><g transform="translate(257.31,257.31) scale(1.879) rotate(0)"><path fill-rule="evenodd" clip-rule="evenodd" d="M10 20C15.5228 20 20 15.5228 20 10C20 4.47715 15.5228 0 10 0C4.47715 0 0 4.47715 0 10C0 15.5228 4.47715 20 10 20ZM10 17C13.866 17 17 13.866 17 10C17 6.13401 13.866 3 10 3C6.13401 3 3 6.13401 3 10C3 13.866 6.13401 17 10 17Z" fill="#47acff"/></g><g transform="translate(314.4,264.2) scale(1.1905) rotate(0)"><rect width="20" height="2" fill="#47acff"/><rect y="4" width="20" height="2" fill="#47acff"/><rect y="8" width="20" height="2" fill="#47acff"/><rect y="12" width="20" height="2" fill="#47acff"/><rect y="16" width="20" height="2" fill="#47acff"/></g><rect x="20.080000000000002" y="321.28000000000003" width="10.04" height="10.04" fill="#3730a3"/><g transform="translate(20.08,321.28) scale(0.251) rotate(0)"><rect width="20" height="2" fill="#02f7cb"/><rect y="4" width="20" height="2" fill="#02f7cb"/><rect y="8" width="20" height="2" fill="#02f7cb"/><rect y="12" width="20" height="2" fill="#02f7cb"/><rect y="16" width="20" height="2" fill="#02f7cb"/></g><g transform="translate(25.1,321.28) scale(0.251) rotate(0)"><rect width="2" height="20" fill="#02f7cb"/><rect x="4" width="2" height="20" fill="#02f7cb"/><rect x="8" width="2" height="20" fill="#02f7cb"/><rect x="12" width="2" height="20" fill="#02f7cb"/><rect x="16" width="2" height="20" fill="#02f7cb"/></g><circle cx="22.589999999999996" cy="328.81" r="2.51" fill="#47acff"/><g transform="translate(25.1,326.3) scale(0.251) rotate(0)"><path fill-rule="evenodd" clip-rule="evenodd" d="M10 20C15.5228 20 20 15.5228 20 10C20 4.47715 15.5228 0 10 0C4.47715 0 0 4.47715 0 10C0 15.5228 4.47715 20 10 20ZM10 17C13.866 17 17 13.866 17 10C17 6.13401 13.866 3 10 3C6.13401 3 3 6.13401 3 10C3 13.866 6.13401 17 10 17Z" fill="#47acff"/></g><circle cx="75.30499999999999" cy="326.30499999999995" r="11.905" fill="#47acff"/><rect x="106.71085714285715" y="307.51085714285716" width="37.57828571428571" height="37.57828571428571" fill="#3730a3"/><g transform="translate(106.71,307.51) scale(0.9395) rotate(0)"><rect width="2" height="20" fill="#47acff"/><rect x="4" width="2" height="20" fill="#47acff"/><rect x="8" width="2" height="20" fill="#47acff"/><rect x="12" width="2" height="20" fill="#47acff"/><rect x="16" width="2" height="20" fill="#47acff"/></g><g transform="translate(125.5,307.51) scale(0.9395) rotate(0)"><rect width="20" height="2" fill="#47acff"/><rect y="4" width="20" height="2" fill="#47acff"/><rect y="8" width="20" height="2" fill="#47acff"/><rect y="12" width="20" height="2" fill="#47acff"/><rect y="16" width="20" height="2" fill="#47acff"/></g><g transform="translate(106.71,326.3) scale(0.9395) rotate(0)"><path fill-rule="evenodd" clip-rule="evenodd" d="M10 20C15.5228 20 20 15.5228 20 10C20 4.47715 15.5228 0 10 0C4.47715 0 0 4.47715 0 10C0 15.5228 4.47715 20 10 20ZM10 17C13.866 17 17 13.866 17 10C17 6.13401 13.866 3 10 3C6.13401 3 3 6.13401 3 10C3 13.866 6.13401 17 10 17Z" fill="#47acff"/></g><g transform="translate(125.5,326.3) scale(0.9395) rotate(0)"><path fill-rule="evenodd" clip-rule="evenodd" d="M10 20C15.5228 20 20 15.5228 20 10C20 4.47715 15.5228 0 10 0C4.47715 0 0 4.47715 0 10C0 15.5228 4.47715 20 10 20ZM10 17C13.866 17 17 13.866 17 10C17 6.13401 13.866 3 10 3C6.13401 3 3 6.13401 3 10C3 13.866 6.13401 17 10 17Z" fill="#02f7cb"/></g><rect x="150.60000000000002" y="301.20000000000005" width="50.2" height="50.2" fill="#3730a3"/><g transform="translate(150.6,301.2) scale(1.2550000000000001) rotate(0)"><path fill-rule="evenodd" clip-rule="evenodd" d="M10 20C15.5228 20 20 15.5228 20 10C20 4.47715 15.5228 0 10 0C4.47715 0 0 4.47715 0 10C0 15.5228 4.47715 20 10 20ZM10 17C13.866 17 17 13.866 17 10C17 6.13401 13.866 3 10 3C6.13401 3 3 6.13401 3 10C3 13.866 6.13401 17 10 17Z" fill="#47acff"/></g><g transform="translate(175.7,301.2) scale(1.2550000000000001) rotate(0)"><path d="M10 5L5 0L0 5L5 10L0 15L5 20L10 15L15 20L20 15L15 10L20 5L15 0L10 5Z" fill="#02f7cb"/></g><g transform="translate(150.6,326.3) scale(1.2550000000000001) rotate(0)"><rect width="20" height="2" fill="#47acff"/><rect y="4" width="20" height="2" fill="#47acff"/><rect y="8" width="20" height="2" fill="#47acff"/><rect y="12" width="20" height="2" fill="#47acff"/><rect y="16" width="20" height="2" fill="#47acff"/></g><circle cx="188.25" cy="338.85" r="12.55" fill="#47acff"/><g transform="translate(200.8,301.2) scale(2.5100000000000002) rotate(0)"><path fill-rule="evenodd" clip-rule="evenodd" d="M10 20C15.5228 20 20 15.5228 20 10C20 4.47715 15.5228 0 10 0C4.47715 0 0 4.47715 0 10C0 15.5228 4.47715 20 10 20ZM10 17C13.866 17 17 13.866 17 10C17 6.13401 13.866 3 10 3C6.13401 3 3 6.13401 3 10C3 13.866 6.13401 17 10 17Z" fill="#47acff"/></g><rect x="257.3108571428571" y="307.51085714285716" width="37.57828571428571" height="37.57828571428571" fill="#3730a3"/><g transform="translate(257.31,307.51) scale(0.9395) rotate(0)"><rect width="2" height="20" fill="#47acff"/><rect x="4" width="2" height="20" fill="#47acff"/><rect x="8" width="2" height="20" fill="#47acff"/><rect x="12" width="2" height="20" fill="#47acff"/><rect x="16" width="2" height="20" fill="#47acff"/></g><g transform="translate(276.1,307.51) scale(0.9395) rotate(0)"><rect width="2" height="20" fill="#47acff"/><rect x="4" width="2" height="20" fill="#47acff"/><rect x="8" width="2" height="20" fill="#47acff"/><rect x="12" width="2" height="20" fill="#47acff"/><rect x="16" width="2" height="20" fill="#47acff"/></g><g transform="translate(257.31,326.3) scale(0.9395) rotate(0)"><rect width="20" height="2" fill="#47acff"/><rect y="4" width="20" height="2" fill="#47acff"/><rect y="8" width="20" height="2" fill="#47acff"/><rect y="12" width="20" height="2" fill="#47acff"/><rect y="16" width="20" height="2" fill="#47acff"/></g><g transform="translate(276.1,326.3) scale(0.9395) rotate(0)"><rect width="2" height="20" fill="#02f7cb"/><rect x="4" width="2" height="20" fill="#02f7cb"/><rect x="8" width="2" height="20" fill="#02f7cb"/><rect x="12" width="2" height="20" fill="#02f7cb"/><rect x="16" width="2" height="20" fill="#02f7cb"/></g><rect x="314.3954285714286" y="314.3954285714286" width="23.809142857142856" height="23.809142857142856" fill="#3730a3"/><g transform="translate(314.4,314.4) scale(0.595) rotate(0)"><path fill-rule="evenodd" clip-rule="evenodd" d="M10 20C15.5228 20 20 15.5228 20 10C20 4.47715 15.5228 0 10 0C4.47715 0 0 4.47715 0 10C0 15.5228 4.47715 20 10 20ZM10 17C13.866 17 17 13.866 17 10C17 6.13401 13.866 3 10 3C6.13401 3 3 6.13401 3 10C3 13.866 6.13401 17 10 17Z" fill="#02f7cb"/></g><g transform="translate(326.3,314.4) scale(0.595) rotate(0)"><path d="M10 5L5 0L0 5L5 10L0 15L5 20L10 15L15 20L20 15L15 10L20 5L15 0L10 5Z" fill="#47acff"/></g><circle cx="320.34999999999997" cy="332.25" r="5.95" fill="#02f7cb"/><circle cx="332.25" cy="332.25" r="5.95" fill="#02f7cb"/><rect x="20.080000000000002" y="371.48" width="10.04" height="10.04" fill="#3730a3"/><g transform="translate(20.08,371.48) scale(0.251) rotate(0)"><path d="M10 5L5 0L0 5L5 10L0 15L5 20L10 15L15 20L20 15L15 10L20 5L15 0L10 5Z" fill="#02f7cb"/></g><g transform="translate(25.1,371.48) scale(0.251) rotate(0)"><rect width="20" height="2" fill="#02f7cb"/><rect y="4" width="20" height="2" fill="#02f7cb"/><rect y="8" width="20" height="2" fill="#02f7cb"/><rect y="12" width="20" height="2" fill="#02f7cb"/><rect y="16" width="20" height="2" fill="#02f7cb"/></g><g transform="translate(20.08,376.5) scale(0.251) rotate(0)"><path d="M10 5L5 0L0 5L5 10L0 15L5 20L10 15L15 20L20 15L15 10L20 5L15 0L10 5Z" fill="#02f7cb"/></g><g transform="translate(25.1,376.5) scale(0.251) rotate(0)"><rect width="20" height="2" fill="#02f7cb"/><rect y="4" width="20" height="2" fill="#02f7cb"/><rect y="8" width="20" height="2" fill="#02f7cb"/><rect y="12" width="20" height="2" fill="#02f7cb"/><rect y="16" width="20" height="2" fill="#02f7cb"/></g><rect x="63.395428571428575" y="364.5954285714286" width="23.809142857142856" height="23.809142857142856" fill="#3730a3"/><circle cx="69.35" cy="370.55" r="5.95" fill="#47acff"/><g transform="translate(75.3,364.6) scale(0.595) rotate(0)"><rect width="20" height="2" fill="#02f7cb"/><rect y="4" width="20" height="2" fill="#02f7cb"/><rect y="8" width="20" height="2" fill="#02f7cb"/><rect y="12" width="20" height="2" fill="#02f7cb"/><rect y="16" width="20" height="2" fill="#02f7cb"/></g><g transform="translate(63.4,376.5) scale(0.595) rotate(0)"><rect width="2" height="20" fill="#47acff"/><rect x="4" width="2" height="20" fill="#47acff"/><rect x="8" width="2" height="20" fill="#47acff"/><rect x="12" width="2" height="20" fill="#47acff"/><rect x="16" width="2" height="20" fill="#47acff"/></g><g transform="translate(75.3,376.5) scale(0.595) rotate(0)"><path d="M10 5L5 0L0 5L5 10L0 15L5 20L10 15L15 20L20 15L15 10L20 5L15 0L10 5Z" fill="#02f7cb"/></g><rect x="106.71085714285715" y="357.7108571428572" width="37.57828571428571" height="37.57828571428571" fill="#3730a3"/><circle cx="116.10499999999999" cy="367.10499999999996" r="9.395" fill="#02f7cb"/><circle cx="134.895" cy="367.10499999999996" r="9.395" fill="#02f7cb"/><g transform="translate(106.71,376.5) scale(0.9395) rotate(0)"><rect width="20" height="2" fill="#47acff"/><rect y="4" width="20" height="2" fill="#47acff"/><rect y="8" width="20" height="2" fill="#47acff"/><rect y="12" width="20" height="2" fill="#47acff"/><rect y="16" width="20" height="2" fill="#47acff"/></g><circle cx="134.895" cy="385.895" r="9.395" fill="#02f7cb"/><rect x="150.60000000000002" y="351.40000000000003" width="50.2" height="50.2" fill="#3730a3"/><g transform="translate(150.6,351.4) scale(1.2550000000000001) rotate(0)"><path d="M10 5L5 0L0 5L5 10L0 15L5 20L10 15L15 20L20 15L15 10L20 5L15 0L10 5Z" fill="#02f7cb"/></g><g transform="translate(175.7,351.4) scale(1.2550000000000001) rotate(0)"><rect width="20" height="2" fill="#02f7cb"/><rect y="4" width="20" height="2" fill="#02f7cb"/><rect y="8" width="20" height="2" fill="#02f7cb"/><rect y="12" width="20" height="2" fill="#02f7cb"/><rect y="16" width="20" height="2" fill="#02f7cb"/></g><g transform="translate(150.6,376.5) scale(1.2550000000000001) rotate(0)"><rect width="20" height="2" fill="#47acff"/><rect y="4" width="20" height="2" fill="#47acff"/><rect y="8" width="20" height="2" fill="#47acff"/><rect y="12" width="20" height="2" fill="#47acff"/><rect y="16" width="20" height="2" fill="#47acff"/></g><g transform="translate(175.7,376.5) scale(1.2550000000000001) rotate(0)"><rect width="2" height="20" fill="#47acff"/><rect x="4" width="2" height="20" fill="#47acff"/><rect x="8" width="2" height="20" fill="#47acff"/><rect x="12" width="2" height="20" fill="#47acff"/><rect x="16" width="2" height="20" fill="#47acff"/></g><g transform="translate(200.8,351.4) scale(2.5100000000000002) rotate(0)"><path fill-rule="evenodd" clip-rule="evenodd" d="M10 20C15.5228 20 20 15.5228 20 10C20 4.47715 15.5228 0 10 0C4.47715 0 0 4.47715 0 10C0 15.5228 4.47715 20 10 20ZM10 17C13.866 17 17 13.866 17 10C17 6.13401 13.866 3 10 3C6.13401 3 3 6.13401 3 10C3 13.866 6.13401 17 10 17Z" fill="#02f7cb"/></g><rect x="257.3108571428571" y="357.7108571428572" width="37.57828571428571" height="37.57828571428571" fill="#3730a3"/><g transform="translate(257.31,357.71) scale(0.9395) rotate(0)"><path fill-rule="evenodd" clip-rule="evenodd" d="M10 20C15.5228 20 20 15.5228 20 10C20 4.47715 15.5228 0 10 0C4.47715 0 0 4.47715 0 10C0 15.5228 4.47715 20 10 20ZM10 17C13.866 17 17 13.866 17 10C17 6.13401 13.866 3 10 3C6.13401 3 3 6.13401 3 10C3 13.866 6.13401 17 10 17Z" fill="#47acff"/></g><g transform="translate(276.1,357.71) scale(0.9395) rotate(0)"><path d="M10 5L5 0L0 5L5 10L0 15L5 20L10 15L15 20L20 15L15 10L20 5L15 0L10 5Z" fill="#47acff"/></g><circle cx="266.705" cy="385.895" r="9.395" fill="#02f7cb"/><circle cx="285.495" cy="385.895" r="9.395" fill="#02f7cb"/><rect x="314.3954285714286" y="364.5954285714286" width="23.809142857142856" height="23.809142857142856" fill="#3730a3"/><g transform="translate(314.4,364.6) scale(0.595) rotate(0)"><path d="M10 5L5 0L0 5L5 10L0 15L5 20L10 15L15 20L20 15L15 10L20 5L15 0L10 5Z" fill="#02f7cb"/></g><g transform="translate(326.3,364.6) scale(0.595) rotate(0)"><path d="M10 5L5 0L0 5L5 10L0 15L5 20L10 15L15 20L20 15L15 10L20 5L15 0L10 5Z" fill="#02f7cb"/></g><g transform="translate(314.4,376.5) scale(0.595) rotate(0)"><path d="M10 5L5 0L0 5L5 10L0 15L5 20L10 15L15 20L20 15L15 10L20 5L15 0L10 5Z" fill="#02f7cb"/></g><g transform="translate(326.3,376.5) scale(0.595) rotate(0)"><path d="M10 5L5 0L0 5L5 10L0 15L5 20L10 15L15 20L20 15L15 10L20 5L15 0L10 5Z" fill="#47acff"/></g><rect x="20.080000000000002" y="421.68" width="10.04" height="10.04" fill="#3730a3"/><g transform="translate(20.08,421.68) scale(0.251) rotate(0)"><path fill-rule="evenodd" clip-rule="evenodd" d="M10 20C15.5228 20 20 15.5228 20 10C20 4.47715 15.5228 0 10 0C4.47715 0 0 4.47715 0 10C0 15.5228 4.47715 20 10 20ZM10 17C13.866 17 17 13.866 17 10C17 6.13401 13.866 3 10 3C6.13401 3 3 6.13401 3 10C3 13.866 6.13401 17 10 17Z" fill="#47acff"/></g><g transform="translate(25.1,421.68) scale(0.251) rotate(0)"><path fill-rule="evenodd" clip-rule="evenodd" d="M10 20C15.5228 20 20 15.5228 20 10C20 4.47715 15.5228 0 10 0C4.47715 0 0 4.47715 0 10C0 15.5228 4.47715 20 10 20ZM10 17C13.866 17 17 13.866 17 10C17 6.13401 13.866 3 10 3C6.13401 3 3 6.13401 3 10C3 13.866 6.13401 17 10 17Z" fill="#02f7cb"/></g><g transform="translate(20.08,426.7) scale(0.251) rotate(0)"><path fill-rule="evenodd" clip-rule="evenodd" d="M10 20C15.5228 20 20 15.5228 20 10C20 4.47715 15.5228 0 10 0C4.47715 0 0 4.47715 0 10C0 15.5228 4.47715 20 10 20ZM10 17C13.866 17 17 13.866 17 10C17 6.13401 13.866 3 10 3C6.13401 3 3 6.13401 3 10C3 13.866 6.13401 17 10 17Z" fill="#02f7cb"/></g><g transform="translate(25.1,426.7) scale(0.251) rotate(0)"><rect width="2" height="20" fill="#02f7cb"/><rect x="4" width="2" height="20" fill="#02f7cb"/><rect x="8" width="2" height="20" fill="#02f7cb"/><rect x="12" width="2" height="20" fill="#02f7cb"/><rect x="16" width="2" height="20" fill="#02f7cb"/></g><rect x="63.395428571428575" y="414.7954285714286" width="23.809142857142856" height="23.809142857142856" fill="#3730a3"/><g transform="translate(63.4,414.8) scale(0.595) rotate(0)"><rect width="2" height="20" fill="#02f7cb"/><rect x="4" width="2" height="20" fill="#02f7cb"/><rect x="8" width="2" height="20" fill="#02f7cb"/><rect x="12" width="2" height="20" fill="#02f7cb"/><rect x="16" width="2" height="20" fill="#02f7cb"/></g><g transform="translate(75.3,414.8) scale(0.595) rotate(0)"><path fill-rule="evenodd" clip-rule="evenodd" d="M10 20C15.5228 20 20 15.5228 20 10C20 4.47715 15.5228 0 10 0C4.47715 0 0 4.47715 0 10C0 15.5228 4.47715 20 10 20ZM10 17C13.866 17 17 13.866 17 10C17 6.13401 13.866 3 10 3C6.13401 3 3 6.13401 3 10C3 13.866 6.13401 17 10 17Z" fill="#02f7cb"/></g><g transform="translate(63.4,426.7) scale(0.595) rotate(0)"><path d="M10 5L5 0L0 5L5 10L0 15L5 20L10 15L15 20L20 15L15 10L20 5L15 0L10 5Z" fill="#02f7cb"/></g><g transform="translate(75.3,426.7) scale(0.595) rotate(0)"><path fill-rule="evenodd" clip-rule="evenodd" d="M10 20C15.5228 20 20 15.5228 20 10C20 4.47715 15.5228 0 10 0C4.47715 0 0 4.47715 0 10C0 15.5228 4.47715 20 10 20ZM10 17C13.866 17 17 13.866 17 10C17 6.13401 13.866 3 10 3C6.13401 3 3 6.13401 3 10C3 13.866 6.13401 17 10 17Z" fill="#47acff"/></g><g transform="translate(106.71,407.91) scale(1.879) rotate(0)"><rect width="20" height="2" fill="#02f7cb"/><rect y="4" width="20" height="2" fill="#02f7cb"/><rect y="8" width="20" height="2" fill="#02f7cb"/><rect y="12" width="20" height="2" fill="#02f7cb"/><rect y="16" width="20" height="2" fill="#02f7cb"/></g><g transform="translate(150.6,401.6) scale(2.5100000000000002) rotate(0)"><path fill-rule="evenodd" clip-rule="evenodd" d="M10 20C15.5228 20 20 15.5228 20 10C20 4.47715 15.5228 0 10 0C4.47715 0 0 4.47715 0 10C0 15.5228 4.47715 20 10 20ZM10 17C13.866 17 17 13.866 17 10C17 6.13401 13.866 3 10 3C6.13401 3 3 6.13401 3 10C3 13.866 6.13401 17 10 17Z" fill="#47acff"/></g><g transform="translate(200.8,401.6) scale(2.5100000000000002) rotate(0)"><path d="M10 5L5 0L0 5L5 10L0 15L5 20L10 15L15 20L20 15L15 10L20 5L15 0L10 5Z" fill="#02f7cb"/></g><rect x="257.3108571428571" y="407.91085714285714" width="37.57828571428571" height="37.57828571428571" fill="#3730a3"/><g transform="translate(257.31,407.91) scale(0.9395) rotate(0)"><path d="M10 5L5 0L0 5L5 10L0 15L5 20L10 15L15 20L20 15L15 10L20 5L15 0L10 5Z" fill="#47acff"/></g><g transform="translate(276.1,407.91) scale(0.9395) rotate(0)"><path fill-rule="evenodd" clip-rule="evenodd" d="M10 20C15.5228 20 20 15.5228 20 10C20 4.47715 15.5228 0 10 0C4.47715 0 0 4.47715 0 10C0 15.5228 4.47715 20 10 20ZM10 17C13.866 17 17 13.866 17 10C17 6.13401 13.866 3 10 3C6.13401 3 3 6.13401 3 10C3 13.866 6.13401 17 10 17Z" fill="#02f7cb"/></g><g transform="translate(257.31,426.7) scale(0.9395) rotate(0)"><path fill-rule="evenodd" clip-rule="evenodd" d="M10 20C15.5228 20 20 15.5228 20 10C20 4.47715 15.5228 0 10 0C4.47715 0 0 4.47715 0 10C0 15.5228 4.47715 20 10 20ZM10 17C13.866 17 17 13.866 17 10C17 6.13401 13.866 3 10 3C6.13401 3 3 6.13401 3 10C3 13.866 6.13401 17 10 17Z" fill="#47acff"/></g><g transform="translate(276.1,426.7) scale(0.9395) rotate(0)"><rect width="20" height="2" fill="#47acff"/><rect y="4" width="20" height="2" fill="#47acff"/><rect y="8" width="20" height="2" fill="#47acff"/><rect y="12" width="20" height="2" fill="#47acff"/><rect y="16" width="20" height="2" fill="#47acff"/></g><circle cx="326.30499999999995" cy="426.705" r="11.905" fill="#02f7cb"/><g transform="translate(20.08,471.88) scale(0.502) rotate(0)"><rect width="2" height="20" fill="#47acff"/><rect x="4" width="2" height="20" fill="#47acff"/><rect x="8" width="2" height="20" fill="#47acff"/><rect x="12" width="2" height="20" fill="#47acff"/><rect x="16" width="2" height="20" fill="#47acff"/></g><rect x="63.395428571428575" y="464.9954285714286" width="23.809142857142856" height="23.809142857142856" fill="#3730a3"/><g transform="translate(63.4,465) scale(0.595) rotate(0)"><rect width="2" height="20" fill="#02f7cb"/><rect x="4" width="2" height="20" fill="#02f7cb"/><rect x="8" width="2" height="20" fill="#02f7cb"/><rect x="12" width="2" height="20" fill="#02f7cb"/><rect x="16" width="2" height="20" fill="#02f7cb"/></g><g transform="translate(75.3,465) scale(0.595) rotate(0)"><rect width="2" height="20" fill="#02f7cb"/><rect x="4" width="2" height="20" fill="#02f7cb"/><rect x="8" width="2" height="20" fill="#02f7cb"/><rect x="12" width="2" height="20" fill="#02f7cb"/><rect x="16" width="2" height="20" fill="#02f7cb"/></g><g transform="translate(63.4,476.9) scale(0.595) rotate(0)"><path d="M10 5L5 0L0 5L5 10L0 15L5 20L10 15L15 20L20 15L15 10L20 5L15 0L10 5Z" fill="#02f7cb"/></g><circle cx="81.25" cy="482.84999999999997" r="5.95" fill="#47acff"/><g transform="translate(106.71,458.11) scale(1.879) rotate(0)"><rect width="2" height="20" fill="#47acff"/><rect x="4" width="2" height="20" fill="#47acff"/><rect x="8" width="2" height="20" fill="#47acff"/><rect x="12" width="2" height="20" fill="#47acff"/><rect x="16" width="2" height="20" fill="#47acff"/></g><rect x="150.60000000000002" y="451.8" width="50.2" height="50.2" fill="#3730a3"/><circle cx="163.15" cy="464.35" r="12.55" fill="#02f7cb"/><g transform="translate(175.7,451.8) scale(1.2550000000000001) rotate(0)"><path fill-rule="evenodd" clip-rule="evenodd" d="M10 20C15.5228 20 20 15.5228 20 10C20 4.47715 15.5228 0 10 0C4.47715 0 0 4.47715 0 10C0 15.5228 4.47715 20 10 20ZM10 17C13.866 17 17 13.866 17 10C17 6.13401 13.866 3 10 3C6.13401 3 3 6.13401 3 10C3 13.866 6.13401 17 10 17Z" fill="#02f7cb"/></g><circle cx="163.15" cy="489.45" r="12.55" fill="#02f7cb"/><g transform="translate(175.7,476.9) scale(1.2550000000000001) rotate(0)"><path fill-rule="evenodd" clip-rule="evenodd" d="M10 20C15.5228 20 20 15.5228 20 10C20 4.47715 15.5228 0 10 0C4.47715 0 0 4.47715 0 10C0 15.5228 4.47715 20 10 20ZM10 17C13.866 17 17 13.866 17 10C17 6.13401 13.866 3 10 3C6.13401 3 3 6.13401 3 10C3 13.866 6.13401 17 10 17Z" fill="#47acff"/></g><g transform="translate(200.8,451.8) scale(2.5100000000000002) rotate(0)"><rect width="20" height="2" fill="#47acff"/><rect y="4" width="20" height="2" fill="#47acff"/><rect y="8" width="20" height="2" fill="#47acff"/><rect y="12" width="20" height="2" fill="#47acff"/><rect y="16" width="20" height="2" fill="#47acff"/></g><g transform="translate(257.31,458.11) scale(1.879) rotate(0)"><path fill-rule="evenodd" clip-rule="evenodd" d="M10 20C15.5228 20 20 15.5228 20 10C20 4.47715 15.5228 0 10 0C4.47715 0 0 4.47715 0 10C0 15.5228 4.47715 20 10 20ZM10 17C13.866 17 17 13.866 17 10C17 6.13401 13.866 3 10 3C6.13401 3 3 6.13401 3 10C3 13.866 6.13401 17 10 17Z" fill="#02f7cb"/></g><g transform="translate(314.4,465) scale(1.1905) rotate(0)"><path d="M10 5L5 0L0 5L5 10L0 15L5 20L10 15L15 20L20 15L15 10L20 5L15 0L10 5Z" fill="#02f7cb"/></g></g></svg>