<?xml version="1.0" standalone="no"?><svg xmlns:xlink="http://www.w3.org/1999/xlink" xmlns="http://www.w3.org/2000/svg" viewBox="0 0 1000 1714.316205111787" preserveAspectRatio="xMaxYMax slice"><g transform="scale(3.414972520143002)"><rect x="0" y="0" width="292.83333333333337" height="502" fill="#f3f5bc"/><g transform="translate(0,0) scale(2.0915) rotate(0)"><rect width="2" height="20" fill="#f4f8d3"/><rect x="4" width="2" height="20" fill="#f4f8d3"/><rect x="8" width="2" height="20" fill="#f4f8d3"/><rect x="12" width="2" height="20" fill="#f4f8d3"/><rect x="16" width="2" height="20" fill="#f4f8d3"/></g><g transform="translate(41.83,0) scale(2.0915) rotate(0)"><rect width="2" height="20" fill="#f4f9d9"/><rect x="4" width="2" height="20" fill="#f4f9d9"/><rect x="8" width="2" height="20" fill="#f4f9d9"/><rect x="12" width="2" height="20" fill="#f4f9d9"/><rect x="16" width="2" height="20" fill="#f4f9d9"/></g><g transform="translate(83.67,0) scale(2.0915) rotate(0)"><rect width="2" height="20" fill="#b1b289"/><rect x="4" width="2" height="20" fill="#b1b289"/><rect x="8" width="2" height="20" fill="#b1b289"/><rect x="12" width="2" height="20" fill="#b1b289"/><rect x="16" width="2" height="20" fill="#b1b289"/></g><g transform="translate(125.5,0) scale(2.0915) rotate(0)"><path d="M10 0H20L0 20V10L10 0Z" fill="#f5fdf2"/><path d="M20 10V20H10L20 10Z" fill="#f5fdf2"/></g><g transform="translate(167.33,0) scale(2.0915) rotate(0)"><rect width="2" height="20" fill="#f4fbe2"/><rect x="4" width="2" height="20" fill="#f4fbe2"/><rect x="8" width="2" height="20" fill="#f4fbe2"/><rect x="12" width="2" height="20" fill="#f4fbe2"/><rect x="16" width="2" height="20" fill="#f4fbe2"/></g><g transform="translate(209.17,0) scale(2.0915) rotate(0)"><path d="M10 0H20L0 20V10L10 0Z" fill="#060604"/><path d="M20 10V20H10L20 10Z" fill="#060604"/></g><g transform="translate(251,0) scale(2.0915) rotate(0)"><rect width="2" height="20" fill="#eef0b8"/><rect x="4" width="2" height="20" fill="#eef0b8"/><rect x="8" width="2" height="20" fill="#eef0b8"/><rect x="12" width="2" height="20" fill="#eef0b8"/><rect x="16" width="2" height="20" fill="#eef0b8"/></g><g transform="translate(0,41.83) scale(2.0915) rotate(0)"><rect width="2" height="20" fill="#191913"/><rect x="4" width="2" height="20" fill="#191913"/><rect x="8" width="2" height="20" fill="#191913"/><rect x="12" width="2" height="20" fill="#191913"/><rect x="16" width="2" height="20" fill="#191913"/></g><g transform="translate(41.83,41.83) scale(2.0915) rotate(0)"><path d="M10 0H20L0 20V10L10 0Z" fill="#f3f5bf"/><path d="M20 10V20H10L20 10Z" fill="#f3f5bf"/></g><g transform="translate(83.67,41.83) scale(2.0915) rotate(0)"><path d="M10 0H20L0 20V10L10 0Z" fill="#f4f8cf"/><path d="M20 10V20H10L20 10Z" fill="#f4f8cf"/></g><g transform="translate(125.5,41.83) scale(2.0915) rotate(0)"><rect width="2" height="20" fill="#28291f"/><rect x="4" width="2" height="20" fill="#28291f"/><rect x="8" width="2" height="20" fill="#28291f"/><rect x="12" width="2" height="20" fill="#28291f"/><rect x="16" width="2" height="20" fill="#28291f"/></g><g transform="translate(167.33,41.83) scale(2.0915) rotate(0)"><path d="M10 0H20L0 20V10L10 0Z" fill="#7c7d60"/><path d="M20 10V20H10L20 10Z" fill="#7c7d60"/></g><g transform="translate(209.17,41.83) scale(2.0915) rotate(0)"><rect width="2" height="20" fill="#e0e2ad"/><rect x="4" width="2" height="20" fill="#e0e2ad"/><rect x="8" width="2" height="20" fill="#e0e2ad"/><rect x="12" width="2" height="20" fill="#e0e2ad"/><rect x="16" width="2" height="20" fill="#e0e2ad"/></g><g transform="translate(251,41.83) scale(2.0915) rotate(0)"><path d="M10 0H20L0 20V10L10 0Z" fill="#f5fffd"/><path d="M20 10V20H10L20 10Z" fill="#f5fffd"/></g><g transform="translate(0,83.67) scale(2.0915) rotate(0)"><rect width="2" height="20" fill="#f3f6bf"/><rect x="4" width="2" height="20" fill="#f3f6bf"/><rect x="8" width="2" height="20" fill="#f3f6bf"/><rect x="12" width="2" height="20" fill="#f3f6bf"/><rect x="16" width="2" height="20" fill="#f3f6bf"/></g><g transform="translate(41.83,83.67) scale(2.0915) rotate(0)"><rect width="2" height="20" fill="#f4f9d7"/><rect x="4" width="2" height="20" fill="#f4f9d7"/><rect x="8" width="2" height="20" fill="#f4f9d7"/><rect x="12" width="2" height="20" fill="#f4f9d7"/><rect x="16" width="2" height="20" fill="#f4f9d7"/></g><g transform="translate(83.67,83.67) scale(2.0915) rotate(0)"><rect width="2" height="20" fill="#f3f7c7"/><rect x="4" width="2" height="20" fill="#f3f7c7"/><rect x="8" width="2" height="20" fill="#f3f7c7"/><rect x="12" width="2" height="20" fill="#f3f7c7"/><rect x="16" width="2" height="20" fill="#f3f7c7"/></g><g transform="translate(125.5,83.67) scale(2.0915) rotate(0)"><rect width="2" height="20" fill="#f4f8d1"/><rect x="4" width="2" height="20" fill="#f4f8d1"/><rect x="8" width="2" height="20" fill="#f4f8d1"/><rect x="12" width="2" height="20" fill="#f4f8d1"/><rect x="16" width="2" height="20" fill="#f4f8d1"/></g><g transform="translate(167.33,83.67) scale(2.0915) rotate(0)"><rect width="2" height="20" fill="#151611"/><rect x="4" width="2" height="20" fill="#151611"/><rect x="8" width="2" height="20" fill="#151611"/><rect x="12" width="2" height="20" fill="#151611"/><rect x="16" width="2" height="20" fill="#151611"/></g><g transform="translate(209.17,83.67) scale(2.0915) rotate(0)"><rect width="2" height="20" fill="#565743"/><rect x="4" width="2" height="20" fill="#565743"/><rect x="8" width="2" height="20" fill="#565743"/><rect x="12" width="2" height="20" fill="#565743"/><rect x="16" width="2" height="20" fill="#565743"/></g><g transform="translate(251,83.67) scale(2.0915) rotate(0)"><rect width="2" height="20" fill="#202018"/><rect x="4" width="2" height="20" fill="#202018"/><rect x="8" width="2" height="20" fill="#202018"/><rect x="12" width="2" height="20" fill="#202018"/><rect x="16" width="2" height="20" fill="#202018"/></g><g transform="translate(0,125.5) scale(2.0915) rotate(0)"><rect width="2" height="20" fill="#8a8b6a"/><rect x="4" width="2" height="20" fill="#8a8b6a"/><rect x="8" width="2" height="20" fill="#8a8b6a"/><rect x="12" width="2" height="20" fill="#8a8b6a"/><rect x="16" width="2" height="20" fill="#8a8b6a"/></g><g transform="translate(41.83,125.5) scale(2.0915) rotate(0)"><path d="M10 0H20L0 20V10L10 0Z" fill="#f4f9d4"/><path d="M20 10V20H10L20 10Z" fill="#f4f9d4"/></g><g transform="translate(83.67,125.5) scale(2.0915) rotate(0)"><rect width="2" height="20" fill="#f5fef5"/><rect x="4" width="2" height="20" fill="#f5fef5"/><rect x="8" width="2" height="20" fill="#f5fef5"/><rect x="12" width="2" height="20" fill="#f5fef5"/><rect x="16" width="2" height="20" fill="#f5fef5"/></g><g transform="translate(125.5,125.5) scale(2.0915) rotate(0)"><path d="M10 0H20L0 20V10L10 0Z" fill="#f4f9d6"/><path d="M20 10V20H10L20 10Z" fill="#f4f9d6"/></g><g transform="translate(167.33,125.5) scale(2.0915) rotate(0)"><path d="M10 0H20L0 20V10L10 0Z" fill="#1c1c16"/><path d="M20 10V20H10L20 10Z" fill="#1c1c16"/></g><g transform="translate(209.17,125.5) scale(2.0915) rotate(0)"><rect width="2" height="20" fill="#e3e5af"/><rect x="4" width="2" height="20" fill="#e3e5af"/><rect x="8" width="2" height="20" fill="#e3e5af"/><rect x="12" width="2" height="20" fill="#e3e5af"/><rect x="16" width="2" height="20" fill="#e3e5af"/></g><g transform="translate(251,125.5) scale(2.0915) rotate(0)"><rect width="2" height="20" fill="#1c1c16"/><rect x="4" width="2" height="20" fill="#1c1c16"/><rect x="8" width="2" height="20" fill="#1c1c16"/><rect x="12" width="2" height="20" fill="#1c1c16"/><rect x="16" width="2" height="20" fill="#1c1c16"/></g><g transform="translate(0,167.33) scale(2.0915) rotate(0)"><path d="M10 0H20L0 20V10L10 0Z" fill="#6e6f55"/><path d="M20 10V20H10L20 10Z" fill="#6e6f55"/></g><g transform="translate(41.83,167.33) scale(2.0915) rotate(0)"><rect width="2" height="20" fill="#f4fadf"/><rect x="4" width="2" height="20" fill="#f4fadf"/><rect x="8" width="2" height="20" fill="#f4fadf"/><rect x="12" width="2" height="20" fill="#f4fadf"/><rect x="16" width="2" height="20" fill="#f4fadf"/></g><g transform="translate(83.67,167.33) scale(2.0915) rotate(0)"><rect width="2" height="20" fill="#f3f7cc"/><rect x="4" width="2" height="20" fill="#f3f7cc"/><rect x="8" width="2" height="20" fill="#f3f7cc"/><rect x="12" width="2" height="20" fill="#f3f7cc"/><rect x="16" width="2" height="20" fill="#f3f7cc"/></g><g transform="translate(125.5,167.33) scale(2.0915) rotate(0)"><path d="M10 0H20L0 20V10L10 0Z" fill="#444535"/><path d="M20 10V20H10L20 10Z" fill="#444535"/></g><g transform="translate(167.33,167.33) scale(2.0915) rotate(0)"><rect width="2" height="20" fill="#1f1f18"/><rect x="4" width="2" height="20" fill="#1f1f18"/><rect x="8" width="2" height="20" fill="#1f1f18"/><rect x="12" width="2" height="20" fill="#1f1f18"/><rect x="16" width="2" height="20" fill="#1f1f18"/></g><g transform="translate(209.17,167.33) scale(2.0915) rotate(0)"><rect width="2" height="20" fill="#c2c496"/><rect x="4" width="2" height="20" fill="#c2c496"/><rect x="8" width="2" height="20" fill="#c2c496"/><rect x="12" width="2" height="20" fill="#c2c496"/><rect x="16" width="2" height="20" fill="#c2c496"/></g><g transform="translate(251,167.33) scale(2.0915) rotate(0)"><rect width="2" height="20" fill="#ebedb5"/><rect x="4" width="2" height="20" fill="#ebedb5"/><rect x="8" width="2" height="20" fill="#ebedb5"/><rect x="12" width="2" height="20" fill="#ebedb5"/><rect x="16" width="2" height="20" fill="#ebedb5"/></g><g transform="translate(0,209.17) scale(2.0915) rotate(0)"><path d="M10 0H20L0 20V10L10 0Z" fill="#f3f6c5"/><path d="M20 10V20H10L20 10Z" fill="#f3f6c5"/></g><g transform="translate(41.83,209.17) scale(2.0915) rotate(0)"><path d="M10 0H20L0 20V10L10 0Z" fill="#f4fadb"/><path d="M20 10V20H10L20 10Z" fill="#f4fadb"/></g><g transform="translate(83.67,209.17) scale(2.0915) rotate(0)"><rect width="2" height="20" fill="#cecf9f"/><rect x="4" width="2" height="20" fill="#cecf9f"/><rect x="8" width="2" height="20" fill="#cecf9f"/><rect x="12" width="2" height="20" fill="#cecf9f"/><rect x="16" width="2" height="20" fill="#cecf9f"/></g><g transform="translate(125.5,209.17) scale(2.0915) rotate(0)"><path d="M10 0H20L0 20V10L10 0Z" fill="#f4fadf"/><path d="M20 10V20H10L20 10Z" fill="#f4fadf"/></g><g transform="translate(167.33,209.17) scale(2.0915) rotate(0)"><path d="M10 0H20L0 20V10L10 0Z" fill="#969874"/><path d="M20 10V20H10L20 10Z" fill="#969874"/></g><g transform="translate(209.17,209.17) scale(2.0915) rotate(0)"><path d="M10 0H20L0 20V10L10 0Z" fill="#7d7e61"/><path d="M20 10V20H10L20 10Z" fill="#7d7e61"/></g><g transform="translate(251,209.17) scale(2.0915) rotate(0)"><rect width="2" height="20" fill="#828364"/><rect x="4" width="2" height="20" fill="#828364"/><rect x="8" width="2" height="20" fill="#828364"/><rect x="12" width="2" height="20" fill="#828364"/><rect x="16" width="2" height="20" fill="#828364"/></g><g transform="translate(0,251) scale(2.0915) rotate(0)"><rect width="2" height="20" fill="#d0d2a1"/><rect x="4" width="2" height="20" fill="#d0d2a1"/><rect x="8" width="2" height="20" fill="#d0d2a1"/><rect x="12" width="2" height="20" fill="#d0d2a1"/><rect x="16" width="2" height="20" fill="#d0d2a1"/></g><g transform="translate(41.83,251) scale(2.0915) rotate(0)"><rect width="2" height="20" fill="#cfd1a1"/><rect x="4" width="2" height="20" fill="#cfd1a1"/><rect x="8" width="2" height="20" fill="#cfd1a1"/><rect x="12" width="2" height="20" fill="#cfd1a1"/><rect x="16" width="2" height="20" fill="#cfd1a1"/></g><g transform="translate(83.67,251) scale(2.0915) rotate(0)"><rect width="2" height="20" fill="#e3e5b0"/><rect x="4" width="2" height="20" fill="#e3e5b0"/><rect x="8" width="2" height="20" fill="#e3e5b0"/><rect x="12" width="2" height="20" fill="#e3e5b0"/><rect x="16" width="2" height="20" fill="#e3e5b0"/></g><g transform="translate(125.5,251) scale(2.0915) rotate(0)"><rect width="2" height="20" fill="#f4fbe7"/><rect x="4" width="2" height="20" fill="#f4fbe7"/><rect x="8" width="2" height="20" fill="#f4fbe7"/><rect x="12" width="2" height="20" fill="#f4fbe7"/><rect x="16" width="2" height="20" fill="#f4fbe7"/></g><g transform="translate(167.33,251) scale(2.0915) rotate(0)"><path d="M10 0H20L0 20V10L10 0Z" fill="#090907"/><path d="M20 10V20H10L20 10Z" fill="#090907"/></g><g transform="translate(209.17,251) scale(2.0915) rotate(0)"><path d="M10 0H20L0 20V10L10 0Z" fill="#7e7f62"/><path d="M20 10V20H10L20 10Z" fill="#7e7f62"/></g><g transform="translate(251,251) scale(2.0915) rotate(0)"><path d="M10 0H20L0 20V10L10 0Z" fill="#9fa17b"/><path d="M20 10V20H10L20 10Z" fill="#9fa17b"/></g><g transform="translate(0,292.83) scale(2.0915) rotate(0)"><path d="M10 0H20L0 20V10L10 0Z" fill="#f5fdf4"/><path d="M20 10V20H10L20 10Z" fill="#f5fdf4"/></g><g transform="translate(41.83,292.83) scale(2.0915) rotate(0)"><path d="M10 0H20L0 20V10L10 0Z" fill="#f4f8d2"/><path d="M20 10V20H10L20 10Z" fill="#f4f8d2"/></g><g transform="translate(83.67,292.83) scale(2.0915) rotate(0)"><path d="M10 0H20L0 20V10L10 0Z" fill="#9e9f7a"/><path d="M20 10V20H10L20 10Z" fill="#9e9f7a"/></g><g transform="translate(125.5,292.83) scale(2.0915) rotate(0)"><rect width="2" height="20" fill="#61624b"/><rect x="4" width="2" height="20" fill="#61624b"/><rect x="8" width="2" height="20" fill="#61624b"/><rect x="12" width="2" height="20" fill="#61624b"/><rect x="16" width="2" height="20" fill="#61624b"/></g><g transform="translate(167.33,292.83) scale(2.0915) rotate(0)"><rect width="2" height="20" fill="#27271e"/><rect x="4" width="2" height="20" fill="#27271e"/><rect x="8" width="2" height="20" fill="#27271e"/><rect x="12" width="2" height="20" fill="#27271e"/><rect x="16" width="2" height="20" fill="#27271e"/></g><g transform="translate(209.17,292.83) scale(2.0915) rotate(0)"><path d="M10 0H20L0 20V10L10 0Z" fill="#6e6f55"/><path d="M20 10V20H10L20 10Z" fill="#6e6f55"/></g><g transform="translate(251,292.83) scale(2.0915) rotate(0)"><path d="M10 0H20L0 20V10L10 0Z" fill="#020201"/><path d="M20 10V20H10L20 10Z" fill="#020201"/></g><g transform="translate(0,334.67) scale(2.0915) rotate(0)"><rect width="2" height="20" fill="#6a6b52"/><rect x="4" width="2" height="20" fill="#6a6b52"/><rect x="8" width="2" height="20" fill="#6a6b52"/><rect x="12" width="2" height="20" fill="#6a6b52"/><rect x="16" width="2" height="20" fill="#6a6b52"/></g><g transform="translate(41.83,334.67) scale(2.0915) rotate(0)"><rect width="2" height="20" fill="#8e8f6e"/><rect x="4" width="2" height="20" fill="#8e8f6e"/><rect x="8" width="2" height="20" fill="#8e8f6e"/><rect x="12" width="2" height="20" fill="#8e8f6e"/><rect x="16" width="2" height="20" fill="#8e8f6e"/></g><g transform="translate(83.67,334.67) scale(2.0915) rotate(0)"><rect width="2" height="20" fill="#aaac84"/><rect x="4" width="2" height="20" fill="#aaac84"/><rect x="8" width="2" height="20" fill="#aaac84"/><rect x="12" width="2" height="20" fill="#aaac84"/><rect x="16" width="2" height="20" fill="#aaac84"/></g><g transform="translate(125.5,334.67) scale(2.0915) rotate(0)"><rect width="2" height="20" fill="#f4f9d7"/><rect x="4" width="2" height="20" fill="#f4f9d7"/><rect x="8" width="2" height="20" fill="#f4f9d7"/><rect x="12" width="2" height="20" fill="#f4f9d7"/><rect x="16" width="2" height="20" fill="#f4f9d7"/></g><g transform="translate(167.33,334.67) scale(2.0915) rotate(0)"><path d="M10 0H20L0 20V10L10 0Z" fill="#eceeb7"/><path d="M20 10V20H10L20 10Z" fill="#eceeb7"/></g><g transform="translate(209.17,334.67) scale(2.0915) rotate(0)"><rect width="2" height="20" fill="#f4fbe6"/><rect x="4" width="2" height="20" fill="#f4fbe6"/><rect x="8" width="2" height="20" fill="#f4fbe6"/><rect x="12" width="2" height="20" fill="#f4fbe6"/><rect x="16" width="2" height="20" fill="#f4fbe6"/></g><g transform="translate(251,334.67) scale(2.0915) rotate(0)"><path d="M10 0H20L0 20V10L10 0Z" fill="#bcbd91"/><path d="M20 10V20H10L20 10Z" fill="#bcbd91"/></g><g transform="translate(0,376.5) scale(2.0915) rotate(0)"><rect width="2" height="20" fill="#f4f8ce"/><rect x="4" width="2" height="20" fill="#f4f8ce"/><rect x="8" width="2" height="20" fill="#f4f8ce"/><rect x="12" width="2" height="20" fill="#f4f8ce"/><rect x="16" width="2" height="20" fill="#f4f8ce"/></g><g transform="translate(41.83,376.5) scale(2.0915) rotate(0)"><rect width="2" height="20" fill="#f3f5bf"/><rect x="4" width="2" height="20" fill="#f3f5bf"/><rect x="8" width="2" height="20" fill="#f3f5bf"/><rect x="12" width="2" height="20" fill="#f3f5bf"/><rect x="16" width="2" height="20" fill="#f3f5bf"/></g><g transform="translate(83.67,376.5) scale(2.0915) rotate(0)"><path d="M10 0H20L0 20V10L10 0Z" fill="#74755a"/><path d="M20 10V20H10L20 10Z" fill="#74755a"/></g><g transform="translate(125.5,376.5) scale(2.0915) rotate(0)"><rect width="2" height="20" fill="#cacb9c"/><rect x="4" width="2" height="20" fill="#cacb9c"/><rect x="8" width="2" height="20" fill="#cacb9c"/><rect x="12" width="2" height="20" fill="#cacb9c"/><rect x="16" width="2" height="20" fill="#cacb9c"/></g><g transform="translate(167.33,376.5) scale(2.0915) rotate(0)"><path d="M10 0H20L0 20V10L10 0Z" fill="#f3f5be"/><path d="M20 10V20H10L20 10Z" fill="#f3f5be"/></g><g transform="translate(209.17,376.5) scale(2.0915) rotate(0)"><rect width="2" height="20" fill="#f3f7cb"/><rect x="4" width="2" height="20" fill="#f3f7cb"/><rect x="8" width="2" height="20" fill="#f3f7cb"/><rect x="12" width="2" height="20" fill="#f3f7cb"/><rect x="16" width="2" height="20" fill="#f3f7cb"/></g><g transform="translate(251,376.5) scale(2.0915) rotate(0)"><path d="M10 0H20L0 20V10L10 0Z" fill="#f4fbe5"/><path d="M20 10V20H10L20 10Z" fill="#f4fbe5"/></g><g transform="translate(0,418.33) scale(2.0915) rotate(0)"><path d="M10 0H20L0 20V10L10 0Z" fill="#a9ab83"/><path d="M20 10V20H10L20 10Z" fill="#a9ab83"/></g><g transform="translate(41.83,418.33) scale(2.0915) rotate(0)"><path d="M10 0H20L0 20V10L10 0Z" fill="#a4a57f"/><path d="M20 10V20H10L20 10Z" fill="#a4a57f"/></g><g transform="translate(83.67,418.33) scale(2.0915) rotate(0)"><path d="M10 0H20L0 20V10L10 0Z" fill="#484938"/><path d="M20 10V20H10L20 10Z" fill="#484938"/></g><g transform="translate(125.5,418.33) scale(2.0915) rotate(0)"><path d="M10 0H20L0 20V10L10 0Z" fill="#f3f7c8"/><path d="M20 10V20H10L20 10Z" fill="#f3f7c8"/></g><g transform="translate(167.33,418.33) scale(2.0915) rotate(0)"><rect width="2" height="20" fill="#76775b"/><rect x="4" width="2" height="20" fill="#76775b"/><rect x="8" width="2" height="20" fill="#76775b"/><rect x="12" width="2" height="20" fill="#76775b"/><rect x="16" width="2" height="20" fill="#76775b"/></g><g transform="translate(209.17,418.33) scale(2.0915) rotate(0)"><rect width="2" height="20" fill="#27271e"/><rect x="4" width="2" height="20" fill="#27271e"/><rect x="8" width="2" height="20" fill="#27271e"/><rect x="12" width="2" height="20" fill="#27271e"/><rect x="16" width="2" height="20" fill="#27271e"/></g><g transform="translate(251,418.33) scale(2.0915) rotate(0)"><path d="M10 0H20L0 20V10L10 0Z" fill="#dcdeaa"/><path d="M20 10V20H10L20 10Z" fill="#dcdeaa"/></g><g transform="translate(0,460.17) scale(2.0915) rotate(0)"><rect width="2" height="20" fill="#64644d"/><rect x="4" width="2" height="20" fill="#64644d"/><rect x="8" width="2" height="20" fill="#64644d"/><rect x="12" width="2" height="20" fill="#64644d"/><rect x="16" width="2" height="20" fill="#64644d"/></g><g transform="translate(41.83,460.17) scale(2.0915) rotate(0)"><path d="M10 0H20L0 20V10L10 0Z" fill="#b8ba8f"/><path d="M20 10V20H10L20 10Z" fill="#b8ba8f"/></g><g transform="translate(83.67,460.17) scale(2.0915) rotate(0)"><path d="M10 0H20L0 20V10L10 0Z" fill="#c1c395"/><path d="M20 10V20H10L20 10Z" fill="#c1c395"/></g><g transform="translate(125.5,460.17) scale(2.0915) rotate(0)"><rect width="2" height="20" fill="#f5fdf2"/><rect x="4" width="2" height="20" fill="#f5fdf2"/><rect x="8" width="2" height="20" fill="#f5fdf2"/><rect x="12" width="2" height="20" fill="#f5fdf2"/><rect x="16" width="2" height="20" fill="#f5fdf2"/></g><g transform="translate(167.33,460.17) scale(2.0915) rotate(0)"><path d="M10 0H20L0 20V10L10 0Z" fill="#171711"/><path d="M20 10V20H10L20 10Z" fill="#171711"/></g><g transform="translate(209.17,460.17) scale(2.0915) rotate(0)"><path d="M10 0H20L0 20V10L10 0Z" fill="#f4fceb"/><path d="M20 10V20H10L20 10Z" fill="#f4fceb"/></g><g transform="translate(251,460.17) scale(2.0915) rotate(0)"><rect width="2" height="20" fill="#c7c99a"/><rect x="4" width="2" height="20" fill="#c7c99a"/><rect x="8" width="2" height="20" fill="#c7c99a"/><rect x="12" width="2" height="20" fill="#c7c99a"/><rect x="16" width="2" height="20" fill="#c7c99a"/></g></g></svg>