<?xml version="1.0" standalone="no"?><svg xmlns:xlink="http://www.w3.org/1999/xlink" xmlns="http://www.w3.org/2000/svg" viewBox="0 0 1000 1600" preserveAspectRatio="xMaxYMax slice"><g transform="scale(3.187250996015936)"><rect x="0" y="0" width="313.75" height="502" fill="#ffffff"/><rect x="0" y="0" width="62.75" height="62.75" fill="#bcc7f6"/><rect x="0" y="0" width="62.75" height="62.75" fill="#c6d0f8"/><rect x="62.75" y="0" width="62.75" height="62.75" fill="#ffd4de"/><rect x="62.75" y="0" width="62.75" height="62.75" fill="#1a40e1"/><rect x="125.5" y="0" width="62.75" height="62.75" fill="#ff3666"/><polygon points="188.25,0 188.25,62.75 125.5,62.75" fill="#ffe7ed"/><rect x="188.25" y="0" width="62.75" height="62.75" fill="#ffa8bd"/><path d="M 188.25 62.75 A 62.75 62.75 0 0 1  251 0 L 188.25 62.75 A 62.75 62.75 0 0 0 251 0" fill="#8297ef"/><rect x="251" y="0" width="62.75" height="62.75" fill="#ffb9c9"/><path d="M 251 0 A 62.75 62.75 0 0 1  313.75 62.75 L 251 0 A 62.75 62.75 0 0 0 313.75 62.75" fill="#385ae5"/><rect x="0" y="62.75" width="62.75" height="62.75" fill="#ffb8c9"/><polygon points="0,62.75 62.75,125.5 0,125.5" fill="#ffc6d3"/><rect x="62.75" y="62.75" width="62.75" height="62.75" fill="#a0b0f3"/><path d="M 62.75 62.75 A 62.75 62.75 0 0 0 125.5 125.5 L 125.5 62.75" fill="#ff7898"/><rect x="125.5" y="62.75" width="62.75" height="62.75" fill="#6982eb"/><rect x="125.5" y="62.75" width="62.75" height="62.75" fill="#8da0f0"/><rect x="188.25" y="62.75" width="62.75" height="62.75" fill="#8297ef"/><polygon points="188.25,62.75 251,62.75 251,125.5" fill="#254ae3"/><rect x="251" y="62.75" width="62.75" height="62.75" fill="#ff819f"/><path d="M 251 125.5 A 62.75 62.75 0 0 0 313.75 62.75 L 251 62.75" fill="#ffa1b7"/><rect x="0" y="125.5" width="62.75" height="62.75" fill="#6680eb"/><rect x="0" y="125.5" width="62.75" height="62.75" fill="#ff7999"/><rect x="62.75" y="125.5" width="62.75" height="62.75" fill="#ff9eb5"/><polygon points="62.75,125.5 125.5,125.5 62.75,188.25" fill="#ffa5ba"/><rect x="125.5" y="125.5" width="62.75" height="62.75" fill="#ff8faa"/><rect x="125.5" y="125.5" width="62.75" height="62.75" fill="#e7ebfc"/><rect x="188.25" y="125.5" width="62.75" height="62.75" fill="#ff557d"/><rect x="188.25" y="125.5" width="62.75" height="62.75" fill="#ffc8d5"/><rect x="251" y="125.5" width="62.75" height="62.75" fill="#1c43e2"/><path d="M 251 125.5 A 62.75 62.75 0 0 1 313.75 188.25 L 251 188.25" fill="#ff95ae"/><rect x="0" y="188.25" width="62.75" height="62.75" fill="#ffffff"/><rect x="0" y="188.25" width="62.75" height="62.75" fill="#fffcfd"/><rect x="62.75" y="188.25" width="62.75" height="62.75" fill="#ff87a4"/><polygon points="62.75,188.25 125.5,188.25 62.75,251" fill="#ffcdd9"/><rect x="125.5" y="188.25" width="62.75" height="62.75" fill="#ff7092"/><path d="M 125.5 251 A 62.75 62.75 0 0 1  188.25 188.25 L 188.25 251" fill="#ffc2d0"/><rect x="188.25" y="188.25" width="62.75" height="62.75" fill="#4e6ce8"/><rect x="188.25" y="188.25" width="62.75" height="62.75" fill="#ff83a1"/><rect x="251" y="188.25" width="62.75" height="62.75" fill="#ecf0fd"/><polygon points="251,188.25 313.75,188.25 251,251" fill="#dce2fa"/><rect x="0" y="251" width="62.75" height="62.75" fill="#ff7696"/><path d="M 0 313.75 A 62.75 62.75 0 0 0 62.75 251 L 0 251" fill="#ffb5c6"/><rect x="62.75" y="251" width="62.75" height="62.75" fill="#ff567e"/><rect x="62.75" y="251" width="62.75" height="62.75" fill="#cbd4f8"/><rect x="125.5" y="251" width="62.75" height="62.75" fill="#ffb1c4"/><polygon points="125.5,251 188.25,251 188.25,313.75" fill="#ff4e78"/><rect x="188.25" y="251" width="62.75" height="62.75" fill="#bdc8f6"/><path d="M 188.25 251 A 62.75 62.75 0 0 0 251 313.75 L 251 251" fill="#7990ee"/><rect x="251" y="251" width="62.75" height="62.75" fill="#ff577f"/><polygon points="251,251 313.75,313.75 251,313.75" fill="#ffafc2"/><rect x="0" y="313.75" width="62.75" height="62.75" fill="#ff5079"/><polygon points="0,313.75 62.75,313.75 0,376.5" fill="#2e52e4"/><rect x="62.75" y="313.75" width="62.75" height="62.75" fill="#eff2fd"/><polygon points="125.5,313.75 125.5,376.5 62.75,376.5" fill="#758ced"/><rect x="125.5" y="313.75" width="62.75" height="62.75" fill="#ffe4ea"/><rect x="125.5" y="313.75" width="62.75" height="62.75" fill="#ffaabe"/><rect x="188.25" y="313.75" width="62.75" height="62.75" fill="#97a8f1"/><polygon points="188.25,313.75 251,313.75 251,376.5" fill="#8398ef"/><rect x="251" y="313.75" width="62.75" height="62.75" fill="#ffbdcc"/><rect x="251" y="313.75" width="62.75" height="62.75" fill="#a7b6f4"/><rect x="0" y="376.5" width="62.75" height="62.75" fill="#e3e8fb"/><path d="M 0 376.5 A 62.75 62.75 0 0 0 62.75 439.25 L 62.75 376.5" fill="#5f7aea"/><rect x="62.75" y="376.5" width="62.75" height="62.75" fill="#ff82a0"/><path d="M 62.75 376.5 A 62.75 62.75 0 0 0 125.5 439.25 L 125.5 376.5" fill="#ffa8bd"/><rect x="125.5" y="376.5" width="62.75" height="62.75" fill="#3154e4"/><rect x="125.5" y="376.5" width="62.75" height="62.75" fill="#f4f6fe"/><rect x="188.25" y="376.5" width="62.75" height="62.75" fill="#ff3968"/><polygon points="251,376.5 251,439.25 188.25,439.25" fill="#ffa0b7"/><rect x="251" y="376.5" width="62.75" height="62.75" fill="#8197ef"/><polygon points="251,376.5 313.75,376.5 313.75,439.25" fill="#4b6ae8"/><rect x="0" y="439.25" width="62.75" height="62.75" fill="#4c6be8"/><polygon points="0,439.25 62.75,439.25 0,502" fill="#ff819f"/><rect x="62.75" y="439.25" width="62.75" height="62.75" fill="#ffdce4"/><rect x="62.75" y="439.25" width="62.75" height="62.75" fill="#2e52e4"/><rect x="125.5" y="439.25" width="62.75" height="62.75" fill="#c0cbf7"/><polygon points="188.25,439.25 188.25,502 125.5,502" fill="#5e79ea"/><rect x="188.25" y="439.25" width="62.75" height="62.75" fill="#d9e0fa"/><rect x="188.25" y="439.25" width="62.75" height="62.75" fill="#fff4f7"/><rect x="251" y="439.25" width="62.75" height="62.75" fill="#f1f3fd"/><path d="M 251 502 A 62.75 62.75 0 0 1  313.75 439.25 L 251 502 A 62.75 62.75 0 0 0 313.75 439.25" fill="#5b77ea"/></g></svg>